<svg xmlns="http://www.w3.org/2000/svg" xmlns:xlink="http://www.w3.org/1999/xlink" id="Layer_1" x="0" y="0" version="1.1" viewBox="0 0 1400 570" xml:space="preserve"><style type="text/css">.st0{fill:url(#SVGID_1_)}.st1{opacity:.44;enable-background:new}.st1,.st2,.st3{fill:#383e45}.st2,.st3,.st4,.st5,.st6{enable-background:new}.st2{opacity:.17}.st3{opacity:.13}.st4{opacity:.07;fill:#f6f6f6}.st5,.st6{opacity:.13;fill:#3aadaa}.st6{opacity:.44}</style><radialGradient id="SVGID_1_" cx="1516.38" cy="335.54" r="1778.81" gradientTransform="matrix(1 0 0 -1 0 572)" gradientUnits="userSpaceOnUse"><stop style="stop-color:#f6f6f6" offset="0"/><stop style="stop-color:#3aadaa" offset=".35"/><stop style="stop-color:#383e45" offset=".99"/></radialGradient><polygon points="1400 323 0 570 0 0 1400 0" class="st0"/><polygon points="0 0 .2 90.6 281.9 42.1 281.9 0" class="st1"/><polygon points="364.6 88.5 0 144.1 0 233.6 364.6 177.9" class="st2"/><polygon points="518.4 0 281.9 0 281.9 42.1" class="st3"/><polygon points="599.5 291.9 0 397.6 0 487 599.5 381.3" class="st4"/><polygon points="871.1 154.5 427.1 232.8 427.1 322.3 871.1 244" class="st5"/><polygon points="1098.1 0 1079 3.4 1079 92.8 1400 36.6 1400 0" class="st6"/></svg>